<?xml version="1.0" encoding="utf-8"?>
<!-- Generator: Adobe Illustrator 16.0.0, SVG Export Plug-In . SVG Version: 6.00 Build 0)  -->
<!DOCTYPE svg PUBLIC "-//W3C//DTD SVG 1.1//EN" "http://www.w3.org/Graphics/SVG/1.1/DTD/svg11.dtd">
<svg version="1.1" id="圖層_2" xmlns="http://www.w3.org/2000/svg" xmlns:xlink="http://www.w3.org/1999/xlink" x="0px" y="0px"
	 width="321px" height="63px" viewBox="0 0 321 63" enable-background="new 0 0 321 63" xml:space="preserve">
<g>
	<polygon fill="#172A88" stroke="#231815" stroke-width="0.3" stroke-miterlimit="10" points="45.276,1.481 17.021,16.514 
		38.414,28.278 38.414,49.196 17.021,38.738 17.021,44.294 39.067,55.405 43.643,52.464 43.643,25.75 27.303,16.514 45.276,7.037 	
		"/>
	<polygon fill="#172A88" stroke="#231815" stroke-width="0.3" stroke-miterlimit="10" points="52.466,5.402 32.858,16.514 
		57.695,29.798 69.133,25.01 69.133,42.333 52.793,50.83 52.793,57.366 74.688,46.908 74.688,22.069 70.44,19.455 58.348,24.684 
		42.662,16.84 57.041,8.344 	"/>
	<polygon fill="#172A88" stroke="#231815" stroke-width="0.3" stroke-miterlimit="10" points="45.276,28.441 45.276,61.301 
		50.505,59 50.505,29.798 	"/>
</g>
<text transform="matrix(1 0 0 1 82.3936 39.3613)" font-family="'MicrosoftJhengHeiBold'" font-size="25">輔仁大學統計資訊系</text>
</svg>
